<svg width="64" height="44" viewBox="0 0 64 44" fill="none" xmlns="http://www.w3.org/2000/svg">
    <path d="M8 31.4683H3.07031V35.4995H8.79688V36.7261H1.57031V25.3511H8.71875V26.5854H3.07031V30.2417H8V31.4683ZM19.4062 36.7261H17.8984L12.1719 27.9604V36.7261H10.6641V25.3511H12.1719L17.9141 34.1558V25.3511H19.4062V36.7261Z" fill="#695E8B" fill-opacity="0.51"/>
    <path d="M49.9881 8.8042C50.0567 8.80443 50.1244 8.78724 50.185 8.75413C50.2457 8.72102 50.2974 8.67302 50.3357 8.6144C50.374 8.55578 50.3976 8.48835 50.4044 8.4181C50.4113 8.34784 50.4011 8.27693 50.3749 8.21166C49.2033 4.90158 47.052 2.05271 44.2238 0.0659954C44.1571 0.0228752 44.0799 0 44.0011 0C43.9223 0 43.8451 0.0228752 43.7784 0.0659954C40.9502 2.05271 38.7989 4.90158 37.6272 8.21166C37.6011 8.27693 37.5909 8.34784 37.5978 8.4181C37.6046 8.48835 37.6282 8.55578 37.6665 8.6144C37.7048 8.67302 37.7565 8.72102 37.8172 8.75413C37.8778 8.78724 37.9455 8.80443 38.0141 8.8042H49.9881Z" fill="#695E8B" fill-opacity="0.51"/>
    <path d="M54.8265 18.2946C54.8304 18.4061 54.8762 18.5117 54.9543 18.5892C55.0324 18.6666 55.1367 18.7098 55.2452 18.7098H63.5818C63.6398 18.7099 63.6971 18.6976 63.7502 18.6736C63.8033 18.6495 63.8509 18.6143 63.8899 18.5702C63.9289 18.5263 63.9587 18.4745 63.9774 18.4182C63.9961 18.3619 64.0034 18.3023 63.9988 18.243C63.8135 15.9651 63.2588 13.7352 62.3576 11.6458C62.3248 11.5694 62.271 11.5044 62.2029 11.4588C62.1348 11.4133 62.0553 11.3891 61.9741 11.3892H54.505C54.443 11.3894 54.3819 11.4038 54.326 11.4313C54.2701 11.4587 54.2208 11.4986 54.1818 11.5481C54.1427 11.5975 54.1147 11.6552 54.1 11.7171C54.0852 11.779 54.084 11.8435 54.0964 11.9059C54.5169 14.0101 54.7611 16.1475 54.8265 18.2946V18.2946Z" fill="#695E8B" fill-opacity="0.51"/>
    <path d="M51.8988 18.7098C51.9554 18.7095 52.0113 18.6976 52.0634 18.6749C52.1154 18.6521 52.1625 18.6189 52.2019 18.5771C52.2409 18.535 52.2713 18.4852 52.2911 18.4308C52.311 18.3763 52.3199 18.3183 52.3175 18.2602C52.2432 16.0547 51.9571 13.8623 51.4634 11.7147C51.4412 11.6215 51.3891 11.5387 51.3156 11.4797C51.2421 11.4206 51.1514 11.3887 51.0581 11.3892H36.9472C36.8535 11.3892 36.7626 11.4217 36.6891 11.4814C36.6156 11.5411 36.5637 11.6245 36.5419 11.7182C36.0482 13.8657 35.7621 16.0582 35.6878 18.2636C35.6856 18.3217 35.6947 18.3796 35.7147 18.434C35.7348 18.4883 35.7652 18.538 35.8043 18.5799C35.8434 18.6219 35.8903 18.6553 35.9422 18.6782C35.9941 18.7011 36.05 18.713 36.1065 18.7132L51.8988 18.7098Z" fill="#695E8B" fill-opacity="0.51"/>
    <path d="M38.0121 31.1958C37.9435 31.1956 37.8759 31.2128 37.8152 31.2459C37.7546 31.279 37.7028 31.327 37.6646 31.3856C37.6263 31.4442 37.6027 31.5116 37.5958 31.5819C37.589 31.6522 37.5991 31.7231 37.6253 31.7883C38.7974 35.0987 40.9493 37.9476 43.7781 39.934C43.8446 39.977 43.9215 39.9998 44 39.9998C44.0785 39.9998 44.1554 39.977 44.2219 39.934C47.051 37.9479 49.203 35.0989 50.3747 31.7883C50.4005 31.7229 50.4103 31.652 50.4031 31.5817C50.396 31.5115 50.3722 31.4442 50.3338 31.3856C50.2955 31.3271 50.2437 31.2792 50.183 31.2461C50.1224 31.213 50.0548 31.1957 49.9861 31.1958H38.0121Z" fill="#695E8B" fill-opacity="0.51"/>
    <path d="M36.1064 21.2932C36.0501 21.2934 35.9944 21.3053 35.9425 21.3281C35.8907 21.3509 35.8439 21.3841 35.8048 21.4259C35.7658 21.4677 35.7353 21.5171 35.7152 21.5713C35.6951 21.6254 35.6857 21.6832 35.6878 21.7411C35.762 23.9465 36.0481 26.139 36.5419 28.2866C36.564 28.3799 36.616 28.4629 36.6895 28.5223C36.763 28.5816 36.8537 28.6139 36.9471 28.6138H51.058C51.1518 28.6136 51.2429 28.581 51.3166 28.5214C51.3903 28.4618 51.4426 28.3785 51.465 28.2848C51.9573 26.1371 52.2428 23.9447 52.3174 21.7394C52.3197 21.6813 52.3105 21.6234 52.2905 21.569C52.2705 21.5147 52.24 21.465 52.201 21.4231C52.1619 21.3811 52.115 21.3477 52.063 21.3248C52.0111 21.3019 51.9552 21.29 51.8987 21.2898L36.1064 21.2932Z" fill="#695E8B" fill-opacity="0.51"/>
    <path d="M24.0015 18.243C23.9966 18.3023 24.0038 18.3621 24.0225 18.4185C24.0413 18.4749 24.0712 18.5266 24.1104 18.5705C24.1496 18.6144 24.1972 18.6494 24.2502 18.6734C24.3033 18.6973 24.3605 18.7097 24.4185 18.7098H32.7551C32.8634 18.7103 32.9676 18.6674 33.0458 18.5903C33.1239 18.5131 33.1698 18.4077 33.1737 18.2964C33.239 16.1487 33.4833 14.0107 33.9039 11.9059C33.9173 11.8433 33.9168 11.7784 33.9023 11.716C33.8878 11.6537 33.8597 11.5955 33.8202 11.5459C33.7808 11.4965 33.7313 11.4567 33.675 11.4296C33.6188 11.4025 33.5574 11.3887 33.4953 11.3892H26.0262C25.9449 11.3891 25.8654 11.4133 25.7973 11.4589C25.7292 11.5044 25.6755 11.5694 25.6427 11.6458C24.7414 13.7352 24.1867 15.9651 24.0015 18.243V18.243Z" fill="#695E8B" fill-opacity="0.51"/>
    <path d="M33.1736 21.7056C33.1697 21.5941 33.1239 21.4886 33.0458 21.4111C32.9677 21.3337 32.8634 21.2905 32.7549 21.2905H24.4184C24.3604 21.2904 24.303 21.3027 24.2499 21.3267C24.1968 21.3508 24.1493 21.386 24.1102 21.4301C24.0712 21.474 24.0414 21.5258 24.0227 21.5821C24.004 21.6384 23.9967 21.698 24.0014 21.7573C24.187 24.0351 24.7417 26.2649 25.6425 28.3545C25.6754 28.4309 25.7291 28.4959 25.7972 28.5414C25.8653 28.587 25.9448 28.6112 26.0261 28.6111H33.4951C33.5571 28.6109 33.6182 28.5965 33.6741 28.569C33.73 28.5415 33.7793 28.5017 33.8184 28.4522C33.8575 28.4028 33.8854 28.3451 33.9002 28.2832C33.9149 28.2213 33.9162 28.1568 33.9038 28.0944C33.4833 25.9902 33.239 23.8528 33.1736 21.7056Z" fill="#695E8B" fill-opacity="0.51"/>
    <path d="M34.8229 31.4852C34.7942 31.4008 34.7407 31.3277 34.67 31.2759C34.5992 31.2241 34.5145 31.1961 34.4277 31.1958H27.9231C27.8471 31.1972 27.7728 31.2198 27.7083 31.2613C27.6438 31.3028 27.5915 31.3617 27.5571 31.4314C27.5226 31.5012 27.5073 31.5793 27.5128 31.6574C27.5183 31.7355 27.5444 31.8105 27.5882 31.8745C30.2846 35.8188 34.2344 38.6722 38.7568 39.9426C38.8441 39.9671 38.9368 39.9617 39.021 39.9274C39.1051 39.8931 39.1762 39.8317 39.2236 39.7523C39.2709 39.673 39.292 39.58 39.2836 39.4873C39.2752 39.3946 39.2379 39.3071 39.1771 39.2381C37.2288 36.9848 35.7472 34.3469 34.8229 31.4852V31.4852Z" fill="#695E8B" fill-opacity="0.51"/>
    <path d="M53.5733 31.1956C53.4864 31.1959 53.4017 31.2239 53.331 31.2757C53.2602 31.3275 53.2068 31.4006 53.178 31.4849C52.2565 34.3452 50.7784 36.9825 48.8339 39.2361C48.7731 39.3052 48.7358 39.3926 48.7274 39.4853C48.719 39.578 48.7401 39.671 48.7874 39.7504C48.8348 39.8297 48.9059 39.8912 48.99 39.9255C49.0742 39.9598 49.1669 39.9651 49.2542 39.9406C53.7766 38.6702 57.7264 35.8169 60.4228 31.8725C60.4666 31.8085 60.4927 31.7335 60.4982 31.6554C60.5037 31.5774 60.4884 31.4993 60.4539 31.4295C60.4195 31.3597 60.3672 31.3009 60.3027 31.2594C60.2382 31.2179 60.1639 31.1952 60.0879 31.1938L53.5733 31.1956Z" fill="#695E8B" fill-opacity="0.51"/>
    <path d="M34.4308 8.80613C34.5177 8.80582 34.6023 8.77783 34.6731 8.72601C34.7439 8.67419 34.7973 8.60108 34.826 8.51675C35.7474 5.65592 37.2254 3.01802 39.1702 0.763807C39.2309 0.694779 39.2683 0.607358 39.2766 0.514648C39.285 0.421937 39.264 0.328933 39.2166 0.249575C39.1693 0.170218 39.0982 0.108783 39.014 0.0744796C38.9299 0.0401763 38.8372 0.0348527 38.7498 0.0593069C34.2275 1.32977 30.2778 4.18309 27.5814 8.12747C27.5375 8.19144 27.5115 8.26648 27.506 8.34453C27.5005 8.42259 27.5158 8.50071 27.5502 8.57049C27.5847 8.64027 27.6369 8.69909 27.7014 8.7406C27.7659 8.78212 27.8402 8.80478 27.9163 8.80613H34.4308Z" fill="#695E8B" fill-opacity="0.51"/>
    <path d="M63.9988 21.7573C64.0036 21.698 63.9965 21.6382 63.9777 21.5818C63.959 21.5254 63.9291 21.4737 63.8899 21.4298C63.8507 21.3859 63.8031 21.3509 63.75 21.3269C63.697 21.3029 63.6397 21.2906 63.5818 21.2905H55.2452C55.1367 21.2905 55.0324 21.3337 54.9543 21.4111C54.8762 21.4886 54.8304 21.5941 54.8265 21.7056C54.761 23.8516 54.5167 25.9879 54.0964 28.0909C54.084 28.1534 54.0852 28.2178 54.1 28.2797C54.1147 28.3416 54.1427 28.3993 54.1818 28.4488C54.2208 28.4982 54.2701 28.5381 54.326 28.5656C54.3819 28.5931 54.443 28.6074 54.505 28.6077H61.9741C62.0553 28.6078 62.1348 28.5836 62.2029 28.538C62.271 28.4924 62.3248 28.4275 62.3576 28.351C63.2581 26.2626 63.8128 24.0339 63.9988 21.7573Z" fill="#695E8B" fill-opacity="0.51"/>
    <path d="M53.178 8.51675C53.2067 8.60108 53.2602 8.67419 53.3309 8.72601C53.4017 8.77783 53.4864 8.80582 53.5732 8.80613H60.0777C60.1538 8.80478 60.2281 8.78212 60.2926 8.7406C60.3571 8.69909 60.4094 8.64027 60.4438 8.57049C60.4782 8.50071 60.4935 8.42259 60.488 8.34453C60.4826 8.26648 60.4565 8.19144 60.4127 8.12747C57.7188 4.18504 53.7729 1.33193 49.2542 0.0593069C49.1669 0.0348527 49.0742 0.0401763 48.99 0.0744796C48.9059 0.108783 48.8348 0.170218 48.7874 0.249575C48.7401 0.328933 48.719 0.421937 48.7274 0.514648C48.7358 0.607358 48.7731 0.694779 48.8339 0.763807C50.7786 3.01802 52.2567 5.65592 53.178 8.51675V8.51675Z" fill="#695E8B" fill-opacity="0.51"/>
</svg>
