<svg width="216" height="73" viewBox="0 0 216 73" fill="none" xmlns="http://www.w3.org/2000/svg">
    <path d="M137.293 1.11042C137.228 1.10135 137.177 1.05683 137.177 0.988806C137.177 0.920782 137.229 0.867188 137.293 0.867188H208.038V46.1172C191.809 21.9682 166.441 5.15146 137.293 1.11042Z" fill="#F36C21"/>
    <path d="M196.361 27.2294C196.84 19.7806 196.686 15.4308 197.896 14.2492C199.015 13.1567 201.034 12.8591 204.463 12.5964C196.934 11.68 197.117 11.915 196.361 4.20435C195.605 11.915 195.788 11.68 188.259 12.5964C191.688 12.8591 193.707 13.1567 194.826 14.2492C196.036 15.4308 195.882 19.7806 196.361 27.2294Z" fill="white"/>
    <path d="M79.4414 32.3907V42.1136C78.3451 43.0989 77.3282 43.827 75.7835 43.827C73.9137 43.827 71.4751 42.1565 71.4751 37.3169C71.4751 32.0918 75.3363 28.3233 79.4414 32.3907ZM154.012 37.2319C154.012 40.9576 152.833 43.9123 150.191 43.9123C147.549 43.9123 146.37 40.9576 146.37 37.2319C146.37 33.505 147.549 30.5491 150.191 30.5491C152.833 30.5491 154.012 33.505 154.012 37.2319ZM141.9 37.2319C141.9 41.7289 145.069 45.455 150.191 45.455C155.312 45.455 158.483 41.7289 158.483 37.2319C158.483 32.7341 155.312 29.0076 150.191 29.0076C145.069 29.0076 141.9 32.7341 141.9 37.2319ZM40.3614 37.2319C40.3614 40.9576 39.1825 43.9123 36.5408 43.9123C33.8986 43.9123 32.7194 40.9576 32.7194 37.2319C32.7194 33.505 33.8986 30.5491 36.5408 30.5491C39.1825 30.5491 40.3614 33.505 40.3614 37.2319ZM17.2336 25.7107H14.8352L10.0392 38.773L4.91767 23.7409H0L7.60089 45.2402H9.9179L14.8352 31.964L19.7125 45.2402H22.0303L29.6301 23.7842H27.3138L21.9889 38.773L17.2336 25.7107ZM177.031 45.2823V36.4177C177.031 30.4213 172.683 28.9227 170.123 28.9227C168.293 28.9227 166.748 29.6508 165.204 30.7639L165.121 30.7206V29.1779H161.22V45.2823H165.447V32.3066C166.707 31.1485 167.927 30.6777 168.983 30.6777C171.219 30.6777 172.764 32.9485 172.764 35.4312V45.2823H177.031ZM102.178 45.2823H103.967L112.909 23.6539H110.592L104.373 38.8592L98.2353 23.6539H93.1145L102.178 45.2823ZM74.6051 45.6257C76.5966 45.6257 78.2226 44.898 79.6855 43.6979L79.7669 43.7408V45.2823H83.6689V20.6555H79.4414V30.4646C78.2629 29.5213 76.4749 28.9227 74.6458 28.9227C72.3288 28.9227 66.8011 30.4213 66.8011 37.4884C66.8011 42.7567 71.1906 45.6257 74.6051 45.6257ZM120.58 33.5912C120.174 39.7163 128.71 38.2597 128.466 41.9862C128.343 43.4827 127.124 43.9985 125.824 43.9556C123.709 43.7833 122.409 42.4986 121.271 41.0854L120.012 44.0405C121.717 45.0683 123.587 45.5824 125.213 45.7114C128.872 45.9679 131.962 44.2965 132.164 40.5721C132.529 34.7905 123.709 35.5173 123.873 32.5626C123.954 31.278 125.335 30.6361 126.758 30.7206C128.222 30.8492 129.36 31.7059 130.619 32.9048L131.758 30.2498C130.173 29.5213 128.669 29.1779 127.328 29.0505C123.385 28.7941 120.743 30.9778 120.58 33.5912ZM116.364 21.8989C115.103 21.8989 114.128 22.9271 114.128 24.255C114.128 25.5813 115.103 26.6095 116.364 26.6095C117.624 26.6095 118.599 25.5813 118.599 24.255C118.599 22.9271 117.624 21.8989 116.364 21.8989ZM117.949 29.1779H113.722V45.2827H117.949V29.1779ZM28.2489 37.2319C28.2489 41.7289 31.4185 45.455 36.5408 45.455C41.6615 45.455 44.8322 41.7289 44.8322 37.2319C44.8322 32.7341 41.6615 29.0076 36.5408 29.0076C31.4185 29.0076 28.2489 32.7341 28.2489 37.2319ZM64.4536 20.6555H60.2261V45.2823H64.4536V20.6555ZM47.3425 29.1779V45.2823H51.5684V32.1771C52.9922 30.8925 54.0079 31.3204 56.8128 33.7623L58.5199 29.7361C57.6661 29.3502 56.5687 28.9227 54.9833 28.9227C53.3983 28.9227 52.2191 29.7361 51.6506 30.4646L51.4464 30.7206L51.4061 30.6777L51.4464 29.1779H47.3425Z" fill="#221E1F"/>
    <path d="M139.13 29.1777H134.903V45.2825H139.13V29.1777Z" fill="#221E1F"/>
    <path d="M137.153 21.8992C135.892 21.8992 134.917 22.9274 134.917 24.2553C134.917 25.5815 135.892 26.6097 137.153 26.6097C138.413 26.6097 139.388 25.5815 139.388 24.2553C139.388 22.9274 138.413 21.8992 137.153 21.8992Z" fill="#221E1F"/>
    <path d="M2.79542 57.9148L2.12873 62.9119H8.74991L9.37122 57.9148H10.0982L8.68927 68.8028H7.96232L8.65914 63.5983H2.05283L1.38652 68.8028H0.65918L2.06848 57.9148H2.79542Z" fill="#030404"/>
    <path d="M15.1058 67.2764C15.5655 66.5475 15.7955 65.6137 15.7955 64.4746C15.7955 63.719 15.6336 63.1286 15.3104 62.7023C14.9872 62.2769 14.5682 62.0641 14.0529 62.0641C13.2954 62.0641 12.6917 62.4554 12.2422 63.2374C11.793 64.0199 11.5681 64.9483 11.5681 66.0231C11.5681 66.7256 11.7246 67.2925 12.038 67.7233C12.3506 68.1545 12.7649 68.3697 13.2802 68.3697C14.0377 68.3697 14.6464 68.0057 15.1058 67.2764ZM15.5831 67.7159C14.9974 68.5565 14.2247 68.9766 13.2649 68.9766C12.5376 68.9766 11.9621 68.695 11.5379 68.1306C11.1134 67.5666 10.9014 66.8481 10.9014 65.9753C10.9014 64.6132 11.1972 63.5194 11.7879 62.6945C12.3787 61.87 13.1538 61.4573 14.1136 61.4573C14.8205 61.4573 15.3886 61.7343 15.8182 62.2876C16.2471 62.8408 16.4619 63.5804 16.4619 64.5064C16.4619 65.8054 16.1688 66.8744 15.5831 67.7159Z" fill="#030404"/>
    <path d="M18.5378 68.3063C18.7702 68.3381 18.9341 68.3595 19.0303 68.3698C19.1262 68.3809 19.26 68.3859 19.4318 68.3859C20.5226 68.3859 21.3861 68.0536 22.0227 67.3886C22.6588 66.7232 22.9769 65.8372 22.9769 64.7299C22.9769 63.8679 22.7801 63.2 22.3861 62.7267C21.9921 62.2534 21.487 62.0159 20.8712 62.0159C20.6083 62.0159 20.3356 62.0617 20.0527 62.1516C19.7698 62.2423 19.5124 62.3833 19.28 62.575L18.5378 68.3063ZM19.5984 60.0527L19.3559 61.9681C19.6489 61.7764 19.9318 61.6437 20.2045 61.569C20.4772 61.4948 20.7597 61.4573 21.0527 61.4573C21.8305 61.4573 22.4566 61.7579 22.9315 62.3594C23.4061 62.9605 23.6436 63.7508 23.6436 64.7299C23.6436 66.029 23.2672 67.0588 22.5148 67.819C21.7625 68.5805 20.7444 68.961 19.4619 68.961C19.3203 68.961 19.1591 68.9527 18.9771 68.9367C18.7952 68.9206 18.6184 68.902 18.4466 68.881L18.0072 72.3296H17.3558L18.5831 62.9741C18.4619 63.0804 18.3331 63.2189 18.197 63.3888C18.0604 63.5591 17.9317 63.7244 17.8104 63.8843L17.5076 64.3147C17.4164 64.4425 17.366 64.5064 17.3558 64.5064C17.3053 64.5064 17.2803 64.4747 17.2803 64.4108C17.2803 64.2727 17.4113 63.9878 17.6743 63.557C17.9368 63.1258 18.2596 62.7341 18.6438 62.3833L18.9619 60.0527H19.5984Z" fill="#030404"/>
    <path d="M29.5674 64.4268C29.5674 63.6926 29.4184 63.1121 29.1206 62.6862C28.8225 62.2608 28.3956 62.0476 27.8404 62.0476C27.3252 62.0476 26.8604 62.2554 26.4464 62.6706C26.0321 63.0857 25.7496 63.6711 25.5982 64.4268H29.5674ZM30.1887 64.9533H25.4921C25.4816 65.0493 25.4741 65.1425 25.4694 65.2328C25.464 65.3235 25.4616 65.4381 25.4616 65.5762C25.4616 66.4807 25.6608 67.1754 26.0602 67.6598C26.4589 68.1442 26.9816 68.3858 27.6284 68.3858C27.9817 68.3858 28.3276 68.3194 28.6664 68.1863C29.0044 68.0535 29.3656 67.833 29.7494 67.5242L29.6739 68.2424C29.3503 68.4876 29.0197 68.6711 28.6812 68.7931C28.3428 68.9156 27.9766 68.9766 27.583 68.9766C26.714 68.9766 26.0321 68.6682 25.5375 68.0506C25.0422 67.4335 24.7949 66.6032 24.7949 65.5601C24.7949 64.4425 25.0903 63.4794 25.6815 62.6706C26.2723 61.8617 27.002 61.4573 27.8706 61.4573C28.5678 61.4573 29.1331 61.7261 29.5674 62.2637C30.0017 62.8013 30.2193 63.5862 30.2193 64.6185C30.2193 64.7888 30.2087 64.9001 30.1887 64.9533Z" fill="#030404"/>
    <path d="M31.3713 67.5081H32.22L32.0834 68.6092C32.0024 69.2375 31.851 69.7215 31.6288 70.0625C31.4069 70.4026 31.1292 70.6318 30.7954 70.7489L30.8412 70.3338C31.0431 70.2064 31.1996 70.0147 31.3107 69.759C31.4218 69.5034 31.5024 69.1843 31.5533 68.8009H31.2047L31.3713 67.5081Z" fill="#030404"/>
    <path d="M40.4605 57.9148L38.9757 69.2818C38.8141 70.4737 38.5289 71.304 38.1197 71.7723C37.7104 72.2407 37.1474 72.4748 36.4302 72.4748C36.1575 72.4748 35.895 72.4427 35.6423 72.3792L35.4756 71.6445C35.6372 71.687 35.7788 71.7191 35.9001 71.7402C36.021 71.7616 36.1677 71.7723 36.3391 71.7723C36.8951 71.7723 37.3219 71.5942 37.6197 71.2376C37.9174 70.8806 38.1271 70.2238 38.2484 69.2657L39.7336 57.9148H40.4605Z" fill="#030404"/>
    <path d="M45.4681 67.2764C45.9278 66.5475 46.1579 65.6137 46.1579 64.4746C46.1579 63.719 45.9959 63.1286 45.6727 62.7023C45.3495 62.2769 44.9305 62.0641 44.4152 62.0641C43.6577 62.0641 43.054 62.4554 42.6045 63.2374C42.1553 64.0199 41.9304 64.9483 41.9304 66.0231C41.9304 66.7256 42.0869 67.2925 42.4003 67.7233C42.7129 68.1545 43.1272 68.3697 43.6425 68.3697C44.4 68.3697 45.0087 68.0057 45.4681 67.2764ZM45.9454 67.7159C45.3597 68.5565 44.587 68.9766 43.6272 68.9766C42.8999 68.9766 42.3244 68.695 41.9002 68.1306C41.4757 67.5666 41.2637 66.8481 41.2637 65.9753C41.2637 64.6132 41.5595 63.5194 42.1503 62.6945C42.741 61.87 43.5161 61.4573 44.4759 61.4573C45.1829 61.4573 45.7509 61.7343 46.1805 62.2876C46.6094 62.8408 46.8242 63.5804 46.8242 64.5064C46.8242 65.8054 46.5311 66.8744 45.9454 67.7159Z" fill="#030404"/>
    <path d="M48.5215 61.6338L49.5822 67.7168L52.4759 61.6338H53.1578L48.0367 72.4739H47.3242L49.1275 68.7062L47.8548 61.6338H48.5215Z" fill="#030404"/>
    <path d="M61.1043 67.9946C61.483 67.7769 61.8187 67.4759 62.1117 67.093L62.7483 62.1437C62.6168 62.1227 62.4803 62.1037 62.3391 62.0876C62.1978 62.072 62.0409 62.0641 61.8695 62.0641C60.7686 62.0641 59.8922 62.4286 59.2407 63.1575C58.5893 63.8863 58.2634 64.8205 58.2634 65.9596C58.2634 66.6939 58.4175 67.271 58.7258 67.6916C59.0337 68.1121 59.4454 68.3219 59.9602 68.3219C60.3441 68.3219 60.7255 68.2135 61.1043 67.9946ZM63.4604 61.649L62.5511 68.801H61.8997L62.021 67.8111C61.3441 68.5565 60.6066 68.9288 59.8088 68.9288C59.1523 68.9288 58.6194 68.6575 58.2106 68.1145C57.8013 67.572 57.5967 66.8641 57.5967 65.9914C57.5967 64.64 57.9856 63.5462 58.7634 62.7106C59.5412 61.8753 60.5917 61.4573 61.9149 61.4573C62.208 61.4573 62.4881 61.4762 62.7557 61.5133C63.0234 61.5504 63.2581 61.5958 63.4604 61.649Z" fill="#030404"/>
    <path d="M70.0276 63.8444C70.0124 64.0097 69.9944 64.1664 69.9744 64.3152L69.3684 68.8015H68.7169L69.323 64.3152C69.3429 64.1664 69.3609 64.0044 69.3758 63.8287C69.3911 63.6531 69.3985 63.5331 69.3985 63.4697C69.3985 63.0013 69.3003 62.6525 69.1035 62.4237C68.9063 62.1949 68.6308 62.0807 68.2775 62.0807C67.4692 62.0807 66.6057 62.634 65.6867 63.7409L65.02 68.8015H64.3838L65.3079 61.6334H65.9594L65.7778 63.0067C66.6562 62.0061 67.5451 61.5056 68.4442 61.5056C68.9591 61.5056 69.3558 61.6759 69.6336 62.0164C69.911 62.3569 70.0499 62.8364 70.0499 63.4536C70.0499 63.5492 70.0425 63.6795 70.0276 63.8444Z" fill="#030404"/>
    <path d="M75.1797 68.3559C75.3667 68.3349 75.551 68.2978 75.7329 68.2442L76.5358 62.1298C76.3843 62.1084 76.22 62.0894 76.0436 62.0738C75.8667 62.0577 75.6875 62.0494 75.5056 62.0494C74.4245 62.0494 73.5685 62.3986 72.9374 63.0958C72.3063 63.7925 71.9905 64.6521 71.9905 65.6737C71.9905 66.5357 72.2276 67.2036 72.7026 67.6773C73.1772 68.151 73.8338 68.3876 74.6722 68.3876C74.824 68.3876 74.9927 68.3773 75.1797 68.3559ZM77.733 57.9148L76.3088 68.7711L75.7936 68.8671C75.5913 68.9092 75.4121 68.9384 75.2556 68.9545C75.0991 68.9706 74.8894 68.9784 74.6268 68.9784C73.556 68.9784 72.7351 68.6832 72.1647 68.0925C71.5938 67.5017 71.3086 66.706 71.3086 65.7058C71.3086 64.4711 71.7026 63.4573 72.4906 62.6645C73.2782 61.8717 74.2633 61.4751 75.4449 61.4751C75.5764 61.4751 75.7579 61.4805 75.9903 61.4908C76.2228 61.5015 76.4297 61.5176 76.6117 61.5386L77.0816 57.9148H77.733Z" fill="#030404"/>
    <path d="M84.7623 57.9148L83.2775 69.2818C83.1159 70.4737 82.8307 71.304 82.4214 71.7723C82.0122 72.2407 81.4492 72.4748 80.732 72.4748C80.4593 72.4748 80.1968 72.4427 79.944 72.3792L79.7773 71.6445C79.9389 71.687 80.0806 71.7191 80.2019 71.7402C80.3228 71.7616 80.4695 71.7723 80.6408 71.7723C81.1968 71.7723 81.6237 71.5942 81.9214 71.2376C82.2192 70.8806 82.4289 70.2238 82.5502 69.2657L84.035 57.9148H84.7623Z" fill="#030404"/>
    <path d="M87.0049 61.6338L86.3992 66.3113C86.3785 66.4927 86.3636 66.6308 86.3534 66.7265C86.3437 66.8225 86.3386 66.9128 86.3386 66.9978C86.3386 67.4665 86.4368 67.812 86.634 68.0358C86.8308 68.2593 87.1058 68.3706 87.4599 68.3706C87.8332 68.3706 88.2272 68.2461 88.6415 67.9954C89.0554 67.746 89.5203 67.3226 90.0355 66.7265L90.687 61.6338H91.3384L90.4143 68.8018H89.7624L89.9295 67.4446C89.4846 67.9451 89.048 68.3178 88.6188 68.5623C88.1892 68.8072 87.7373 68.9296 87.2627 68.9296C86.7373 68.9296 86.3409 68.7569 86.0733 68.4106C85.8057 68.0651 85.6719 67.6104 85.6719 67.046C85.6719 66.9607 85.6793 66.8489 85.6946 66.7104C85.7098 66.5723 85.727 66.4284 85.7478 66.2796L86.3534 61.6338H87.0049Z" fill="#030404"/>
    <path d="M96.6703 62.129L96.5944 62.8155C96.2102 62.5388 95.8722 62.3471 95.5791 62.2404C95.2861 62.134 94.9781 62.0812 94.655 62.0812C94.2508 62.0812 93.9253 62.1872 93.678 62.4003C93.43 62.6135 93.3067 62.879 93.3067 63.1985C93.3067 63.6561 93.6346 64.1034 94.2915 64.5392C94.948 64.9762 95.448 65.3855 95.7912 65.769C96.1347 66.1519 96.3064 66.6042 96.3064 67.1257C96.3064 67.7004 96.1171 68.1531 95.7384 68.4829C95.3596 68.8127 94.8721 68.9776 94.2762 68.9776H94.2461C93.8619 68.9776 93.4808 68.903 93.1021 68.7542C92.7234 68.6054 92.3724 68.3926 92.0488 68.1156L92.2006 67.4448C92.8873 68.0624 93.5794 68.3708 94.2762 68.3708C94.7309 68.3708 95.074 68.2492 95.3064 68.0039C95.5388 67.759 95.655 67.4667 95.655 67.1257C95.655 66.53 95.1526 65.9128 94.1475 65.2738C93.1424 64.6352 92.64 63.9546 92.64 63.2306C92.64 62.7194 92.8294 62.2993 93.2081 61.9691C93.5868 61.6393 94.079 61.4744 94.6855 61.4744C95.362 61.4744 96.0236 61.6925 96.6703 62.129Z" fill="#030404"/>
    <path d="M99.8367 60.0527L99.5793 61.6329H101.412L101.306 62.2237H99.4733L98.8821 65.9597C98.8617 66.13 98.8367 66.3402 98.8062 66.59C98.776 66.8399 98.7608 67.0505 98.7608 67.2204C98.7608 67.6252 98.8492 67.918 99.0261 68.0985C99.2025 68.2799 99.4377 68.3698 99.7307 68.3698C99.9627 68.3698 100.187 68.3249 100.405 68.2342C100.622 68.1443 100.822 68.035 101.003 67.9068L100.928 68.5776C100.705 68.7161 100.493 68.8171 100.291 68.881C100.089 68.9449 99.872 68.9767 99.6395 68.9767C99.2154 68.9767 98.8543 68.8435 98.5562 68.5776C98.2584 68.3117 98.1093 67.8862 98.1093 67.3008C98.1093 67.1515 98.1195 66.9652 98.1395 66.7418C98.1598 66.5179 98.195 66.2573 98.2459 65.9597L98.8214 62.2237H97.5186L97.6093 61.6329H98.9279L99.1853 60.0527H99.8367Z" fill="#030404"/>
    <path d="M103.761 58.5359L103.61 59.7653H102.943L103.094 58.5359H103.761ZM103.352 61.6333L102.428 68.8014H101.776L102.716 61.6333H103.352Z" fill="#030404"/>
    <path d="M109.671 61.6172L109.58 62.2393C109.378 62.1862 109.193 62.1466 109.027 62.1198C108.86 62.0934 108.675 62.0802 108.473 62.0802C107.514 62.0802 106.718 62.4422 106.087 63.1653C105.456 63.8892 105.14 64.762 105.14 65.7836C105.14 66.5397 105.335 67.1569 105.724 67.6355C106.112 68.1145 106.65 68.3541 107.337 68.3541C107.61 68.3541 107.9 68.3116 108.209 68.2263C108.516 68.1413 108.832 67.9921 109.155 67.7794L109.064 68.5136C108.479 68.8224 107.857 68.9766 107.201 68.9766C106.383 68.9766 105.724 68.6785 105.224 68.0828C104.724 67.4867 104.474 66.7042 104.474 65.7358C104.474 64.5654 104.847 63.559 105.595 62.7184C106.342 61.8778 107.317 61.4573 108.519 61.4573C108.701 61.4573 108.895 61.4734 109.102 61.5051C109.309 61.5368 109.499 61.5744 109.671 61.6172Z" fill="#030404"/>
    <path d="M115.019 64.4268C115.019 63.6926 114.87 63.1121 114.572 62.6862C114.274 62.2608 113.847 62.0476 113.292 62.0476C112.776 62.0476 112.312 62.2554 111.898 62.6706C111.483 63.0857 111.201 63.6711 111.049 64.4268H115.019ZM115.64 64.9533H110.943C110.933 65.0493 110.926 65.1425 110.921 65.2328C110.915 65.3235 110.913 65.4381 110.913 65.5762C110.913 66.4807 111.112 67.1754 111.512 67.6598C111.91 68.1442 112.433 68.3858 113.08 68.3858C113.434 68.3858 113.779 68.3194 114.118 68.1863C114.456 68.0535 114.817 67.833 115.201 67.5242L115.125 68.2424C114.801 68.4876 114.471 68.6711 114.133 68.7931C113.794 68.9156 113.428 68.9766 113.035 68.9766C112.166 68.9766 111.483 68.6682 110.989 68.0506C110.494 67.4335 110.246 66.6032 110.246 65.5601C110.246 64.4425 110.542 63.4794 111.133 62.6706C111.723 61.8617 112.453 61.4573 113.322 61.4573C114.019 61.4573 114.584 61.7261 115.019 62.2637C115.453 62.8013 115.67 63.5862 115.67 64.6185C115.67 64.7888 115.66 64.9001 115.64 64.9533Z" fill="#030404"/>
    <path d="M126.594 57.978L126.503 58.6166C126.27 58.4888 126.031 58.3985 125.783 58.3453C125.536 58.2921 125.296 58.2653 125.063 58.2653C123.852 58.2653 123.149 59.0103 122.958 60.5007L122.791 61.634H124.458L124.367 62.2248H122.715L121.488 71.9155H120.837L122.064 62.2248H120.807L120.897 61.634H122.155L122.322 60.4524C122.442 59.5479 122.73 58.8532 123.185 58.3692C123.64 57.8848 124.266 57.6428 125.063 57.6428C125.599 57.6428 126.109 57.7541 126.594 57.978Z" fill="#030404"/>
    <path d="M128.542 67.2764C129.002 66.5475 129.232 65.6137 129.232 64.4746C129.232 63.719 129.07 63.1286 128.747 62.7023C128.423 62.2769 128.004 62.0641 127.489 62.0641C126.732 62.0641 126.128 62.4554 125.679 63.2374C125.229 64.0199 125.004 64.9483 125.004 66.0231C125.004 66.7256 125.161 67.2925 125.474 67.7233C125.787 68.1545 126.201 68.3697 126.716 68.3697C127.474 68.3697 128.082 68.0057 128.542 67.2764ZM129.02 67.7159C128.434 68.5565 127.661 68.9766 126.701 68.9766C125.974 68.9766 125.398 68.695 124.974 68.1306C124.55 67.5666 124.338 66.8481 124.338 65.9753C124.338 64.6132 124.633 63.5194 125.224 62.6945C125.815 61.87 126.59 61.4573 127.55 61.4573C128.257 61.4573 128.825 61.7343 129.254 62.2876C129.684 62.8408 129.898 63.5804 129.898 64.5064C129.898 65.8054 129.605 66.8744 129.02 67.7159Z" fill="#030404"/>
    <path d="M135.321 61.6812L135.094 62.3677C134.901 62.2613 134.71 62.2081 134.518 62.2081C134.225 62.2081 133.922 62.3306 133.609 62.5754C133.295 62.8203 133.003 63.1291 132.73 63.5014L132.185 64.2674L131.594 68.8015H130.942L131.881 61.6334H132.533L132.291 63.4053C132.806 62.6925 133.24 62.1978 133.594 61.9208C133.947 61.6441 134.301 61.5056 134.654 61.5056C134.776 61.5056 134.894 61.5217 135.01 61.5534C135.126 61.5852 135.23 61.6281 135.321 61.6812Z" fill="#030404"/>
    <path d="M141.079 64.3321H144.458L143.352 58.8877L141.079 64.3321ZM143.837 57.8022L146.033 68.8019H145.352L144.564 64.9543H140.821L139.215 68.8019H138.488L143.155 57.8022H143.837Z" fill="#030404"/>
    <path d="M149.381 57.9148L148.032 68.1163H152.486L152.411 68.8028H147.229L148.653 57.9148H149.381Z" fill="#030404"/>
    <path d="M155.821 57.9148L154.472 68.1163H158.927L158.851 68.8028H153.67L155.094 57.9148H155.821Z" fill="#030404"/>
    <path d="M171.866 57.8664L171.745 58.5528C171.421 58.5104 171.22 58.4864 171.139 58.4811C171.058 58.4757 170.937 58.4733 170.775 58.4733C169.109 58.4733 167.712 59.0533 166.586 60.213C165.46 61.3736 164.897 62.7625 164.897 64.3802C164.897 65.4764 165.195 66.3941 165.791 67.1338C166.386 67.8738 167.154 68.2436 168.093 68.2436C169.053 68.2436 170.078 67.8713 171.169 67.1259L171.063 67.9884C170.588 68.286 170.088 68.5206 169.563 68.6905C169.038 68.8607 168.538 68.9461 168.063 68.9461C166.902 68.9461 165.957 68.5095 165.23 67.6367C164.503 66.7644 164.139 65.6892 164.139 64.412C164.139 62.539 164.788 60.9638 166.086 59.6866C167.384 58.4089 168.942 57.7708 170.76 57.7708C171.144 57.7708 171.512 57.8025 171.866 57.8664Z" fill="#030404"/>
    <path d="M174.274 57.9148L173.608 62.9758C174.496 61.9645 175.405 61.4591 176.335 61.4591C176.779 61.4591 177.147 61.6293 177.44 61.9699C177.734 62.3104 177.88 62.7734 177.88 63.3588C177.88 63.4973 177.87 63.6647 177.849 63.8617C177.83 64.0588 177.809 64.2155 177.789 64.333L177.198 68.8028H176.547L177.153 64.2052C177.173 64.0881 177.191 63.9471 177.206 63.7822C177.221 63.6169 177.229 63.4919 177.229 63.4066C177.229 62.9275 177.12 62.5796 176.903 62.3611C176.686 62.143 176.415 62.0338 176.092 62.0338C175.708 62.0338 175.317 62.1591 174.918 62.4093C174.519 62.6592 174.052 63.0929 173.516 63.71L172.85 68.8028H172.198L173.622 57.9148H174.274Z" fill="#030404"/>
    <path d="M181.062 58.5359L180.911 59.7653H180.244L180.395 58.5359H181.062ZM180.653 61.6333L179.729 68.8014H179.077L180.017 61.6333H180.653Z" fill="#030404"/>
    <path d="M183.744 57.9148L182.32 68.8028H181.684L183.093 57.9148H183.744Z" fill="#030404"/>
    <path d="M188.282 68.3559C188.469 68.3349 188.653 68.2978 188.835 68.2442L189.638 62.1298C189.487 62.1084 189.323 62.0894 189.146 62.0738C188.969 62.0577 188.79 62.0494 188.608 62.0494C187.527 62.0494 186.671 62.3986 186.04 63.0958C185.408 63.7925 185.093 64.6521 185.093 65.6737C185.093 66.5357 185.33 67.2036 185.805 67.6773C186.279 68.151 186.936 68.3876 187.775 68.3876C187.926 68.3876 188.095 68.3773 188.282 68.3559ZM190.835 57.9148L189.411 68.7711L188.896 68.8671C188.693 68.9092 188.514 68.9384 188.358 68.9545C188.201 68.9706 187.991 68.9784 187.729 68.9784C186.658 68.9784 185.837 68.6832 185.267 68.0925C184.696 67.5017 184.411 66.706 184.411 65.7058C184.411 64.4711 184.805 63.4573 185.593 62.6645C186.381 61.8717 187.365 61.4751 188.547 61.4751C188.678 61.4751 188.86 61.4805 189.093 61.4908C189.325 61.5015 189.532 61.5176 189.714 61.5386L190.184 57.9148H190.835Z" fill="#030404"/>
    <path d="M195.668 61.6812L195.44 62.3677C195.248 62.2613 195.056 62.2081 194.865 62.2081C194.572 62.2081 194.268 62.3306 193.955 62.5754C193.642 62.8203 193.35 63.1291 193.077 63.5014L192.531 64.2674L191.941 68.8015H191.289L192.228 61.6334H192.88L192.637 63.4053C193.153 62.6925 193.587 62.1978 193.94 61.9208C194.294 61.6441 194.647 61.5056 195.001 61.5056C195.122 61.5056 195.241 61.5217 195.357 61.5534C195.473 61.5852 195.577 61.6281 195.668 61.6812Z" fill="#030404"/>
    <path d="M200.107 64.4268C200.107 63.6926 199.958 63.1121 199.661 62.6862C199.363 62.2608 198.936 62.0476 198.38 62.0476C197.865 62.0476 197.4 62.2554 196.986 62.6706C196.572 63.0857 196.289 63.6711 196.138 64.4268H200.107ZM200.729 64.9533H196.032C196.022 65.0493 196.014 65.1425 196.009 65.2328C196.004 65.3235 196.002 65.4381 196.002 65.5762C196.002 66.4807 196.201 67.1754 196.6 67.6598C196.999 68.1442 197.522 68.3858 198.168 68.3858C198.522 68.3858 198.868 68.3194 199.206 68.1863C199.544 68.0535 199.906 67.833 200.289 67.5242L200.214 68.2424C199.89 68.4876 199.56 68.6711 199.221 68.7931C198.882 68.9156 198.517 68.9766 198.123 68.9766C197.254 68.9766 196.572 68.6682 196.077 68.0506C195.583 67.4335 195.335 66.6032 195.335 65.5601C195.335 64.4425 195.63 63.4794 196.221 62.6706C196.812 61.8617 197.542 61.4573 198.411 61.4573C199.107 61.4573 199.673 61.7261 200.107 62.2637C200.541 62.8013 200.759 63.5862 200.759 64.6185C200.759 64.7888 200.749 64.9001 200.729 64.9533Z" fill="#030404"/>
    <path d="M207.371 63.8444C207.356 64.0097 207.338 64.1664 207.319 64.3152L206.712 68.8015H206.061L206.667 64.3152C206.687 64.1664 206.705 64.0044 206.72 63.8287C206.735 63.6531 206.743 63.5331 206.743 63.4697C206.743 63.0013 206.644 62.6525 206.447 62.4237C206.25 62.1949 205.975 62.0807 205.622 62.0807C204.813 62.0807 203.949 62.634 203.031 63.7409L202.364 68.8015H201.728L202.652 61.6334H203.304L203.121 63.0067C204 62.0061 204.889 61.5056 205.788 61.5056C206.303 61.5056 206.7 61.6759 206.978 62.0164C207.256 62.3569 207.394 62.8364 207.394 63.4536C207.394 63.5492 207.387 63.6795 207.371 63.8444Z" fill="#030404"/>
    <path d="M213.805 4.12681C213.954 4.12681 214.074 4.09424 214.166 4.02828C214.258 3.96232 214.304 3.86131 214.304 3.72526C214.304 3.46966 214.143 3.34185 213.823 3.34185H213.477V4.12681H213.805ZM213.007 3.00173H214.005C214.263 3.00173 214.463 3.06028 214.603 3.17818C214.744 3.29527 214.815 3.45894 214.815 3.66961C214.815 3.84276 214.756 3.9887 214.639 4.10826C214.521 4.22782 214.366 4.30244 214.175 4.33088C214.272 4.36428 214.352 4.41169 214.413 4.47353C214.473 4.53537 214.537 4.61988 214.603 4.72666L215.05 5.44442H214.504L214.157 4.83179C214.059 4.66317 213.98 4.5601 213.92 4.52259C213.859 4.48548 213.774 4.46734 213.664 4.46734H213.477V5.44442H213.007V3.00173ZM215.219 5.61138C215.579 5.2321 215.76 4.77242 215.76 4.23194C215.76 3.70053 215.578 3.24415 215.217 2.86239C214.854 2.48104 214.424 2.29016 213.923 2.29016C213.414 2.29016 212.978 2.48228 212.614 2.86569C212.25 3.24868 212.068 3.70671 212.068 4.23854C212.068 4.77448 212.251 5.2321 212.617 5.61138C212.983 5.99067 213.418 6.18031 213.923 6.18031C214.427 6.18031 214.859 5.99067 215.219 5.61138ZM215.381 2.68594C215.794 3.11511 216 3.6325 216 4.23854C216 4.83632 215.797 5.35042 215.39 5.78124C214.983 6.21206 214.494 6.42726 213.923 6.42726C213.343 6.42726 212.849 6.21123 212.441 5.77794C212.032 5.34506 211.827 4.83179 211.827 4.23854C211.827 3.64075 212.032 3.12541 212.441 2.69253C212.849 2.25965 213.341 2.04321 213.917 2.04321C214.48 2.04321 214.968 2.25759 215.381 2.68594Z" fill="#030404"/>
</svg>
